<?xml version="1.0" encoding="UTF-8" standalone="no"?>
<!-- Created with Inkscape (http://www.inkscape.org/) -->

<svg
   xmlns:dc="http://purl.org/dc/elements/1.1/"
   xmlns:cc="http://creativecommons.org/ns#"
   xmlns:rdf="http://www.w3.org/1999/02/22-rdf-syntax-ns#"
   xmlns:svg="http://www.w3.org/2000/svg"
   xmlns="http://www.w3.org/2000/svg"
   version="1.1"
   width="268.63385"
   height="234.0564"
   viewbox="0 0 268.63385 234.0564"
   id="svg2">
  <defs
     id="defs4" />
  <metadata
     id="metadata7">
    <rdf:RDF>
      <cc:Work
         rdf:about="">
        <dc:format>image/svg+xml</dc:format>
        <dc:type
           rdf:resource="http://purl.org/dc/dcmitype/StillImage" />
        <dc:title></dc:title>
      </cc:Work>
    </rdf:RDF>
  </metadata>
  <g
     transform="translate(-300.06553,-317.16714)"
     id="layer1">
    <path
       d="m 445.7607,466.80249 c -0.82106,-1.3285 2.25088,-13.79409 4.11892,-16.71413 0.78894,-1.23325 3.66205,-3.37108 6.38467,-4.75074 l 4.95023,-2.50847 7.62952,1.67646 c 7.50434,1.64895 7.69764,1.64119 11.78174,-0.47282 2.2838,-1.18211 5.0482,-2.27905 6.1431,-2.43765 1.2578,-0.18219 2.8277,-2.05112 4.2639,-5.07606 2.0333,-4.28281 2.1701,-5.42705 1.2966,-10.85043 -1.1347,-7.04595 -1.5357,-7.42666 -12.5082,-11.87331 -10.44697,-4.23369 -13.54309,-6.43059 -13.54309,-9.60973 0,-1.45777 -1.26481,-3.77364 -3.01905,-5.52788 -2.86468,-2.86468 -3.3121,-2.98564 -8.75,-2.36567 -4.38078,0.49944 -7.29102,0.16852 -12.35286,-1.40465 -7.19919,-2.23743 -10.31827,-2.03672 -17.81143,1.14617 -5.26539,2.23658 -14.44392,8.75922 -22.06666,15.68146 l -5.5,4.99457 5.5,-1.42762 c 7.58277,-1.96824 8.01019,-1.82835 4,1.30921 -5.48111,4.28839 -11.08994,9.48282 -10.68097,9.8918 0.20454,0.20454 2.50384,-0.57117 5.10954,-1.7238 2.60571,-1.15263 4.95109,-1.88225 5.21196,-1.62138 0.26087,0.26087 -1.68903,2.57636 -4.33311,5.14552 l -4.80742,4.67121 4.21016,-2.06196 c 6.17862,-3.02603 6.82229,-2.55842 3.01187,2.18804 -5.30429,6.6073 -5.2853,7.06912 0.17688,4.30122 2.8056,-1.4217 5.10109,-2.28231 5.10109,-1.91246 0,0.36985 -1.04438,2.06493 -2.32086,3.76685 -3.90162,5.20202 -4.20927,6.15655 -1.22862,3.81197 3.24558,-2.55298 4.21063,-2.32147 2.6305,0.63103 -1.54046,2.87838 -1.35025,3.36584 0.85324,2.18657 2.97758,-1.59355 3.55759,-1.23615 1.56574,0.96482 -1.38791,1.53362 -1.48235,2.00742 -0.40499,2.0318 0.98942,0.0224 0.84348,0.45683 -0.49339,1.46875 -1.65474,1.25251 -1.71891,1.6594 -0.5,3.17022 4.72435,5.85577 12.26798,10.52972 20.78532,12.87836 5.74008,1.58281 16.49277,1.87427 15.59567,0.42273 z m 36.51738,84.03752 c -0.825,-0.53831 -3.9055,-0.98565 -6.8456,-0.99407 -3.78301,-0.0108 -6.19465,-0.61986 -8.25002,-2.0834 -1.5974,-1.13746 -2.90437,-1.63853 -2.90437,-1.1135 0,1.28257 -5.93457,2.09647 -6.66531,0.91412 -0.31749,-0.51371 -1.85823,-0.67782 -3.42386,-0.3647 -1.85338,0.37068 -3.11951,0.0945 -3.62872,-0.79163 -0.43016,-0.74852 -2.46961,-2.06142 -4.53211,-2.91755 -4.0589,-1.68482 -4.9229,-4.15161 -1.80115,-5.14241 1.07186,-0.3402 2.24742,-1.60803 2.61234,-2.81739 0.36493,-1.20937 1.69208,-3.32385 2.94923,-4.69885 3.72745,-4.07687 4.17246,-11.39887 1.1132,-18.3164 -1.38246,-3.12598 -2.81106,-5.6836 -3.17467,-5.6836 -0.36361,0 -1.54603,1.125 -2.62761,2.5 -2.65216,3.37168 -7.07086,3.26773 -16.18235,-0.38069 -8.91765,-3.5708 -26.55436,-5.13114 -28.70516,-2.53958 -1.01243,1.2199 -2.79991,1.37319 -9.58911,0.82232 -6.03143,-0.48939 -8.34472,-0.35708 -8.34472,0.47728 0,0.6961 -1.89229,0.19547 -4.76675,-1.26113 -2.62171,-1.32852 -6.78421,-2.95012 -9.25,-3.60354 -2.46579,-0.65343 -5.70947,-2.34743 -7.20819,-3.76444 -2.18662,-2.06742 -3.61887,-2.54257 -7.25,-2.40523 -4.4865,0.1697 -4.52506,0.14306 -4.52506,-3.12633 0,-2.94016 -0.29801,-3.29323 -2.75,-3.25808 -2.35646,0.0338 -2.7002,-0.31228 -2.40197,-2.4182 0.19142,-1.35169 0.0395,-5.75005 -0.33758,-9.77412 -0.67267,-7.17845 -0.73585,-7.31133 -3.34803,-7.04238 -2.48443,0.25579 -2.64814,0.0272 -2.44879,-3.42004 0.16786,-2.90274 -0.20705,-3.82767 -1.75,-4.31738 -1.26794,-0.40243 -1.99895,-1.57365 -2.06331,-3.30585 -0.0899,-2.42088 -0.16313,-2.47133 -0.75,-0.51711 -0.61485,2.04739 -0.85875,2.09338 -4.47191,0.84323 -4.52723,-1.56643 -6.60302,-3.98954 -6.64661,-7.75873 -0.0459,-3.9676 0.17125,-4.25121 3.24522,-4.23872 2.42654,0.01 2.71727,-0.30567 2.30353,-2.5 -1.9468,-10.32526 -1.89538,-10.88868 1.32902,-14.56107 1.69974,-1.93589 3.09043,-4.17914 3.09043,-4.98501 0,-0.80586 0.72314,-1.4652 1.60699,-1.4652 1.14216,0 1.39563,-0.5062 0.87629,-1.75 -0.40188,-0.9625 -1.03953,-3.1 -1.41701,-4.75 l -0.68631,-3 -1.43053,2.25 c -2.01374,3.1673 -2.60008,2.8362 -3.35671,-1.89551 -0.87163,-5.45089 -6.59272,-11.7402 -6.59272,-7.2475 0,1.05452 -0.5438,1.39831 -1.58179,1 -0.86998,-0.33385 -1.95053,-0.60699 -2.40122,-0.60699 -0.45069,0 -1.76193,-1.59741 -2.91387,-3.5498 l -2.09443,-3.5498 2.30247,-2.30247 c 1.26636,-1.26636 2.95191,-2.53222 3.74566,-2.81303 1.96069,-0.69362 -1.98309,-4.96561 -7.64999,-8.28664 -2.79106,-1.63566 -4.90681,-3.91036 -6.2636,-6.73413 -3.47719,-7.2368 -5.66719,-20.75614 -3.48036,-21.48509 0.62812,-0.20937 3.27968,2.39736 5.89236,5.79274 3.68214,4.78521 5.99867,6.72549 10.30174,8.62851 3.05328,1.3503 7.23626,3.78952 9.29552,5.42048 2.05926,1.63097 5.90487,3.68699 8.54581,4.56895 2.88768,0.96435 6.87056,3.53816 9.99184,6.45691 2.85458,2.66936 5.61212,4.85337 6.12788,4.85337 0.51575,0 2.55323,-0.675 4.52774,-1.5 1.9745,-0.825 4.86845,-1.5 6.43099,-1.5 1.56255,0 3.7145,-0.66069 4.78212,-1.4682 1.06762,-0.8075 3.51613,-1.52736 5.44113,-1.59968 6.34828,-0.23848 8.45533,-1.28605 9.00433,-4.47671 0.35352,-2.0545 1.16174,-3.0488 2.65138,-3.26176 1.58998,-0.22731 2.32093,-1.25934 2.83306,-4 0.37961,-2.03151 1.13867,-4.23644 1.68681,-4.89985 0.54813,-0.6634 0.71205,-1.6666 0.36427,-2.22933 -0.34779,-0.56272 -0.0815,-2.04494 0.59163,-3.2938 1.29925,-2.41035 1.90621,-5.54442 1.9354,-9.99365 0.0104,-1.59066 0.86497,-3.31631 2.05495,-4.1498 1.68397,-1.1795 1.98871,-2.33819 1.75804,-6.68436 l -0.27905,-5.25753 4.94959,-2.59266 c 3.54152,-1.8551 5.51856,-3.7306 6.94959,-6.59267 1.52552,-3.05105 2.67365,-4.07712 4.83957,-4.32506 2.45496,-0.28104 2.75713,-0.65351 2.23095,-2.75 -0.71758,-2.85905 1.7227,-3.37454 4.41985,-0.93366 2.33966,2.11736 6.58981,-0.0362 7.69813,-3.90075 1.07244,-3.73938 2.89745,-4.37637 3.674,-1.28235 0.54434,2.16882 1.3356,2.47561 8.36934,3.245 4.27249,0.46735 11.14316,0.90247 15.26816,0.96694 8.11135,0.12676 11.50423,1.34248 12.49966,4.47882 0.44055,1.38804 1.51287,2.00106 3.50034,2.00106 1.93269,0 3.06071,0.61593 3.46587,1.89245 1.05394,3.32068 5.60802,4.45825 12.06392,3.01348 5.4856,-1.22762 5.7462,-1.19151 7.4205,1.02817 1.2777,1.69385 2.3041,2.11993 3.8925,1.6158 1.3424,-0.42606 2.1572,-0.2571 2.1572,0.44733 0,0.6226 0.9816,3.41377 2.1813,6.20259 l 2.1813,5.07059 1.8684,-2.30735 1.8684,-2.30736 8.2004,2.31954 c 4.5101,1.27574 9.1293,3.15321 10.2647,4.17215 1.1355,1.01893 2.598,1.85261 3.25,1.85261 0.6521,0 1.1856,0.43875 1.1856,0.975 0,0.53625 1.2375,0.74291 2.75,0.45924 1.9625,-0.36807 3.6049,0.18133 5.7353,1.91855 2.7676,2.25672 2.9957,2.94811 3.1268,9.47741 0.078,3.8737 0.8554,9.20911 1.728,11.85645 4.985,15.12327 5.6264,18.59794 3.6577,19.81469 -0.5669,0.35034 -0.739,2.26505 -0.3963,4.40817 0.4073,2.54716 0.08,4.80509 -0.9978,6.88998 -2.0544,3.97268 -2.0849,3.85259 1.1463,4.51015 1.5125,0.3078 4.9074,1.99468 7.5444,3.74864 3.8561,2.56493 5.4706,3.07926 8.25,2.62823 3.7456,-0.60784 4.0578,-0.10243 2.3085,3.737 -0.9199,2.01894 -0.8003,3.4259 0.6041,7.10322 1.5494,4.05703 1.581,4.78085 0.2743,6.27944 -0.8124,0.9316 -1.702,3.81344 -1.9769,6.40406 -0.5156,4.85923 0.4885,6.68746 4.4408,8.08537 1.3553,0.47936 1.5201,1.16153 0.8217,3.402 -0.4805,1.54132 -1.3558,4.37443 -1.9452,6.2958 -0.5895,1.92137 -1.0717,5.13508 -1.0717,7.14159 0,3.05266 -0.4062,3.75012 -2.4879,4.2726 -1.5511,0.3893 -3.2354,2.08979 -4.4732,4.51616 -1.092,2.14047 -2.5429,4.07757 -3.2242,4.30468 -0.9797,0.32655 -0.9853,1.25902 -0.027,4.45826 2.0314,6.78032 1.6233,9.27396 -1.7078,10.43521 -1.6059,0.55982 -3.1534,1.62648 -3.4388,2.37035 -0.3025,0.78815 -1.3524,1.13458 -2.5162,0.83025 -1.6473,-0.43078 -2.1152,0.10718 -2.6712,3.07105 -0.3708,1.97631 -0.391,4.72126 -0.045,6.09988 0.5468,2.17856 0.2995,2.50657 -1.8899,2.50657 -2.7276,0 -3.1876,0.93154 -1.3615,2.75762 1.6575,1.65747 -0.4374,3.86975 -4.9876,5.26718 -2.0185,0.61991 -4.26,1.31438 -4.9812,1.54326 -1.0273,0.32603 -0.9376,1.04851 0.4139,3.33658 l 1.7252,2.92043 -3.8348,3.61665 c -2.9295,2.76287 -3.5583,3.89303 -2.6639,4.78746 1.9023,1.90231 1.371,2.39259 -2.1476,1.98181 -2.4318,-0.28389 -4.1018,0.26265 -6.25,2.04539 -1.6124,1.33804 -5.0471,3.23045 -7.6327,4.20537 -2.5855,0.97491 -5.4678,2.61985 -6.405,3.65541 -2.0088,2.21969 -3.8418,2.49243 -3.0601,0.45532 0.4321,-1.12603 -0.1789,-1.3096 -2.893,-0.86916 -2.8566,0.46355 -3.4408,0.25185 -3.4408,-1.24679 0,-1.63388 -0.2196,-1.59885 -2.3145,0.36916 -1.2729,1.19587 -3.243,2.17431 -4.378,2.17431 -1.135,0 -2.681,0.89733 -3.4356,1.99407 -1.0089,1.46638 -1.7689,1.73506 -2.872,1.01531 z"
       id="path2996"
       style="fill:#00293d;fill-opacity:1" />
  </g>
</svg>
