<?xml version="1.0" encoding="UTF-8" standalone="no"?>
<!-- Created with Inkscape (http://www.inkscape.org/) -->

<svg
   xmlns:dc="http://purl.org/dc/elements/1.1/"
   xmlns:cc="http://creativecommons.org/ns#"
   xmlns:rdf="http://www.w3.org/1999/02/22-rdf-syntax-ns#"
   xmlns:svg="http://www.w3.org/2000/svg"
   xmlns="http://www.w3.org/2000/svg"
   xmlns:sodipodi="http://sodipodi.sourceforge.net/DTD/sodipodi-0.dtd"
   xmlns:inkscape="http://www.inkscape.org/namespaces/inkscape"
   id="svg2"
   sodipodi:version="0.32"
   inkscape:version="0.48.2 r9819"
   width="1094.8025"
   height="616.1275"
   xml:space="preserve"
   sodipodi:docname="mozilla_community_logo.svg"
   inkscape:output_extension="org.inkscape.output.svg.inkscape"
   version="1.1"><metadata
     id="metadata7"><rdf:RDF><cc:Work
         rdf:about=""><dc:format>image/svg+xml</dc:format><dc:type
           rdf:resource="http://purl.org/dc/dcmitype/StillImage" /></cc:Work></rdf:RDF></metadata><defs
     id="defs5"><inkscape:perspective
       sodipodi:type="inkscape:persp3d"
       inkscape:vp_x="0 : 526.18109 : 1"
       inkscape:vp_y="0 : 1000 : 0"
       inkscape:vp_z="744.09448 : 526.18109 : 1"
       inkscape:persp3d-origin="372.04724 : 350.78739 : 1"
       id="perspective9" /><clipPath
       clipPathUnits="userSpaceOnUse"
       id="clipPath19"><path
         d="M 0,792 1224,792 1224,0 0,0 0,792 z"
         id="path21"
         inkscape:connector-curvature="0" /></clipPath></defs><sodipodi:namedview
     inkscape:window-height="1003"
     inkscape:window-width="1278"
     inkscape:pageshadow="2"
     inkscape:pageopacity="0.0"
     guidetolerance="10.0"
     gridtolerance="10.0"
     objecttolerance="10.0"
     borderopacity="1.0"
     bordercolor="#666666"
     pagecolor="#ffffff"
     id="base"
     showgrid="false"
     inkscape:zoom="0.36405229"
     inkscape:cx="536.74"
     inkscape:cy="311.83125"
     inkscape:window-x="0"
     inkscape:window-y="19"
     inkscape:current-layer="g11"
     fit-margin-top="0"
     fit-margin-left="0"
     fit-margin-right="0"
     fit-margin-bottom="0"
     inkscape:window-maximized="0" /><g
     id="g11"
     inkscape:groupmode="layer"
     inkscape:label="mozilla_community_logo"
     transform="matrix(1.25,0,0,-1.25,-228.26,799.29625)"><g
       id="g15"><g
         id="g17"
         clip-path="url(#clipPath19)"><g
           id="g23"
           transform="translate(844.275,176.431)"><path
             d="m 0,0 -1.704,0 0,12.175 C -0.563,9.758 0.972,7.508 2.888,5.529 L 0,0 z m -442.029,-0.661 -0.042,-0.096 -0.038,-0.1 c -0.238,-0.607 -1.322,-0.92 -3.229,-0.92 -2.154,0 -3.199,0.418 -3.532,0.589 l -0.065,0.092 c -0.479,0.741 -2.044,3.76 -2.044,11.669 0,5.713 0.8,7.83 1.29,8.654 0.359,0.276 1.555,0.874 3.201,0.874 3.405,0 3.823,-0.803 4.11,-1.326 0.658,-1.288 1.537,-3.801 1.537,-10.82 0,-4.868 -0.388,-6.658 -1.188,-8.616 m -45.516,1.092 c -0.157,-0.096 -0.29,-0.155 -0.37,-0.197 l -0.364,-0.188 -0.253,-0.15 c -1.451,-0.849 -3.385,-1.356 -5.172,-1.356 -2.829,0 -4.155,1.05 -5.008,1.979 -1.219,1.33 -2.1,2.296 -2.1,8.059 0,5.183 0.701,7.244 1.238,8.349 1.263,2.622 3.664,3.17 5.45,3.17 1.999,0 3.474,-0.44 5.251,-1.573 l 7.326,-4.668 c -0.113,-1.413 -0.174,-2.856 -0.174,-4.333 0,-1.861 0.113,-3.634 0.276,-5.366 l -6.1,-3.726 z m 548.119,35.154 -8.189,5.83 C 45.94,46.003 36.448,48.742 27,48.742 17.721,48.742 9.78,45.714 4.258,40.658 l 1.066,6.512 -184.915,0.213 0.13,-11.393 -6.817,11.393 -51.696,-0.004 0,-45.714 c 0,-1.28 -0.033,-2.104 -0.068,-2.623 -0.398,-0.05 -0.918,-0.088 -1.594,-0.088 -0.719,0 -1.282,0.067 -1.7,0.151 -0.088,1.075 -0.176,2.66 -0.176,4.759 l 0,43.515 -58.012,0.004 -5.275,-16.746 -5.374,16.746 -28.913,0 -2.106,-20.779 -1.989,20.779 -29.639,0 -5.274,-16.746 -5.375,16.746 -28.907,0 -0.977,-9.628 -0.838,-8.256 c -1.117,2.208 -2.438,4.258 -4.023,6.136 -6.87,8.302 -16.534,12.689 -27.956,12.689 -9.434,0 -17.48,-3.082 -23.53,-8.519 l -2.803,2.049 c -5.619,4.116 -13.54,6.474 -21.726,6.474 -20.931,0 -37.33,-17.319 -37.33,-39.432 0,-22.296 15.481,-38.483 36.81,-38.483 9.295,0 17.631,2.455 23.472,6.914 l 1.913,1.46 c 6.245,-5.826 13.723,-8.474 23.819,-8.474 11.385,0 19.834,3.539 26.461,10.97 l -1.021,-10.033 157.511,0 -0.713,7.437 c 4.43,-4.375 11.682,-8.374 23.457,-8.374 6.33,0 15.635,0.811 23.29,7.863 1.556,1.43 2.818,2.869 3.863,4.345 l 0,-11.271 30.21,0 -0.226,12.191 7.393,-12.191 51.578,0 0,47.692 7.409,0 0,-47.688 29.589,0 0,47.688 8.488,0 0,-47.692 82.628,0.004 0,2.92 c 6.398,-2.631 13.508,-4.07 20.53,-4.07 7.338,0 13.78,1.51 19.08,4.458 8.928,4.885 14.472,13.907 14.472,23.54 0,6.515 -2.614,13.024 -7,17.419 l -0.092,0.088 -0.09,0.088 c -0.612,0.585 -1.277,1.155 -1.984,1.702 L 60.574,35.585 z M 7.691,111.877 c -1.097,-0.687 -2.176,-1.063 -3.12,-1.063 -0.177,0 -0.265,0.021 -0.276,0.021 -0.119,0.088 -0.594,0.799 -0.594,2.422 0,1.848 0.218,2.719 0.324,3.032 0.369,0.222 1.36,0.661 3.765,1.017 l -0.099,-5.429 z m -53.476,0.397 c 0,-0.063 0.008,-0.122 0.008,-0.184 l -0.052,-0.017 c -0.128,3.76 -0.128,9.252 -0.128,13.351 l 0,48.675 3.833,-6.45 11.192,-18.841 1.209,-2.033 c -12.579,-9.072 -16.062,-22.46 -16.062,-34.501 m -150.097,1.284 -28.304,0 28.304,40.578 0,-40.578 z m -79.949,9.728 c 0.441,3.756 0.669,7.717 0.669,11.949 0,7.479 -0.709,14.108 -2.164,20.114 l 24.766,0 -23.271,-32.063 z m -52.22,-9.1 c -0.962,-2.004 -1.414,-2.004 -2.767,-2.004 -1.301,0 -3.059,0.723 -3.48,1.707 -0.752,1.768 -2.496,7.389 -2.496,21.15 0,8.344 0.719,14.555 2.166,18.893 1.027,2.986 2.825,2.986 3.417,2.986 1.296,0 2.351,-0.402 2.955,-1.196 0.312,-0.394 3.028,-4.326 3.028,-20.285 0,-12.711 -1.535,-18.575 -2.823,-21.251 M 60.226,104.181 c -4.324,3.213 -5.099,3.794 -5.099,12.02 l -0.007,1.581 0.592,33.946 c 0,10.865 -0.334,15.487 -2.373,21.601 -5.494,15.655 -20.98,24.635 -42.487,24.635 -10.751,0 -20.478,-2.062 -31.522,-6.68 -7.651,-2.986 -11.048,-4.709 -17.997,-9.134 l -7.29,-4.638 0,26.228 c 0,14.48 -0.396,21.54 -1.552,27.993 l -1.976,11.025 -10.924,-2.472 -26.887,-6.085 -9.308,-2.108 1.029,-9.486 c 0.953,-8.817 1.304,-16.692 1.304,-29.072 l 0,-74.979 c 0,-1.941 0.006,-3.702 0.023,-5.32 l -4.09,-1.167 c -0.13,3.668 -0.13,9.035 -0.13,13.355 l 0,78.316 c 0,14.267 -0.401,21.59 -1.541,27.981 l -1.966,11.046 -10.937,-2.481 -26.893,-6.085 -9.316,-2.108 0.665,-6.107 c -4.567,8.215 -13.238,13.782 -23.174,13.782 -14.993,0 -27.193,-12.108 -27.193,-26.997 0,-6.702 2.435,-12.836 6.459,-17.563 l -93.275,0 0,-21.075 c -1.119,1.614 -2.323,3.19 -3.634,4.725 -10.62,12.543 -24.857,18.901 -42.327,18.901 -25.755,0 -45.42,-15.968 -52.739,-40.795 -0.079,14.069 -2.024,23.84 -11.136,31.694 -6.507,5.659 -16.296,8.913 -26.849,8.913 -10.483,0 -19.149,-2.718 -27.535,-8.845 -6.88,5.796 -15.532,8.845 -25.26,8.845 -6.857,0 -13.402,-1.489 -19.413,-4.379 l -3.887,6.069 -7.585,-2.071 -23.752,-6.478 -13.219,-3.606 6.692,-11.953 c 1.46,-2.61 2.367,-6.947 2.367,-20.481 l 0,-80.78 47.126,0 0,78.571 c 1.782,1.062 3.453,1.707 4.764,2.033 0.073,-1.088 0.123,-2.559 0.123,-4.538 l 0,-76.066 46.342,0 0,77.718 c 1.595,1.054 3.066,1.807 4.255,2.284 0.028,-0.816 0.042,-1.794 0.042,-2.957 l 0,-77.045 46.934,0 0,37.793 c 7.254,-24.589 26.65,-39.952 52.73,-39.952 17.246,0 30.718,5.735 41.212,17.567 0.284,0.322 0.546,0.652 0.822,0.978 l 0,-16.382 141.396,-0.004 0,126.072 -0.101,-0.022 c 0.532,0.988 1,2.008 1.411,3.058 0.06,-2.89 0.093,-5.985 0.093,-9.465 l 0,-74.979 c 0,-14.743 0.36,-19.394 3.022,-26.308 4.678,-12.576 17.784,-20.707 33.391,-20.707 6.995,0 13.768,1.196 19.596,3.476 l 9.091,3.55 -0.282,0.984 c 6.288,-5.066 14.739,-8.014 24.103,-8.014 7.001,0 13.776,1.204 19.601,3.484 l 8.526,3.341 c 7.51,-5.29 17.389,-8.201 29.186,-8.201 9.763,0 18.371,2.25 24.939,6.466 3.288,-2.831 7.158,-5.249 11.35,-7.006 l 7.16,-3.007 5.079,5.868 13.937,16.094 7.548,8.725 -9.254,6.88 z"
             style="fill:#ffffff;fill-opacity:1;fill-rule:nonzero;stroke:none"
             id="path25"
             inkscape:connector-curvature="0" /></g><g
           id="g27"
           transform="translate(317.14,357.92)"><path
             d="M 0,0 23.75,6.479 C 25.517,3.73 26.303,1.376 27.282,-3.73 34.154,2.944 42.594,6.479 51.818,6.479 c 8.244,0 15.114,-2.749 20.412,-8.244 1.374,-1.376 1.962,-2.158 3.928,-4.906 9.224,9.419 17.468,13.15 28.46,13.15 7.85,0 15.31,-2.355 19.822,-6.282 5.693,-4.906 7.46,-10.795 7.46,-24.535 l 0,-71.444 -25.515,0 0,66.342 c 0,11.974 -1.376,14.329 -8.244,14.329 -4.906,0 -11.778,-3.337 -17.47,-8.44 l 0,-72.231 -24.927,0 0,65.359 c 0,12.564 -1.765,15.509 -9.03,15.509 -4.906,0 -11.582,-2.552 -17.272,-7.658 l 0,-73.21 -25.712,0 0,70.073 C 3.73,-11.188 2.748,-4.906 0,0"
             style="fill:#231f20;fill-opacity:1;fill-rule:nonzero;stroke:none"
             id="path29"
             inkscape:connector-curvature="0" /></g><g
           id="g31"
           transform="translate(512.87,345.164)"><path
             d="m 0,0 c -6.28,0 -11.383,-3.928 -13.543,-10.21 -1.767,-5.299 -2.748,-12.363 -2.748,-22.376 0,-11.577 1.18,-20.214 3.338,-25.32 2.354,-5.492 8.244,-8.24 13.346,-8.24 11.384,0 16.291,10.206 16.291,33.954 0,13.546 -1.765,22.376 -5.299,26.892 C 8.833,-1.966 4.709,0 0,0 m -0.394,19.432 c 14.33,0 25.518,-4.911 34.155,-15.117 8.047,-9.419 11.581,-20.41 11.581,-36.705 0,-17.269 -3.927,-29.047 -12.562,-38.859 -7.656,-8.637 -17.665,-13.936 -33.174,-13.936 -27.281,0 -45.141,20.411 -45.141,52.013 0,31.599 18.056,52.604 45.141,52.604"
             style="fill:#231f20;fill-opacity:1;fill-rule:nonzero;stroke:none"
             id="path33"
             inkscape:connector-curvature="0" /></g><g
           id="g35"
           transform="translate(569.145,362.044)"><path
             d="m 0,0 74.585,0 0,-18.06 -44.358,-63.594 46.123,0 -6.277,-18.252 -74,0 0,16.291 47.303,65.162 L 0,-18.453 0,0 z"
             style="fill:#231f20;fill-opacity:1;fill-rule:nonzero;stroke:none"
             id="path37"
             inkscape:connector-curvature="0" /></g><g
           id="g39"
           transform="translate(658.904,360.864)"><path
             d="m 0,0 26.3,4.124 0,-102.851 -26.3,0 L 0,0 z m 13.543,45.735 c 8.833,0 15.897,-7.264 15.897,-16.291 0,-9.029 -7.26,-16.295 -16.291,-16.295 -8.833,0 -16.093,7.266 -16.093,16.295 0,9.027 7.457,16.291 16.487,16.291"
             style="fill:#231f20;fill-opacity:1;fill-rule:nonzero;stroke:none"
             id="path41"
             inkscape:connector-curvature="0" /></g><g
           id="g43"
           transform="translate(733.532,407.382)"><path
             d="m 0,0 c 0.979,-5.496 1.372,-11.97 1.372,-26.103 l 0,-78.316 c 0,-17.273 0.196,-19.629 1.765,-22.376 0.982,-1.766 3.14,-2.748 5.299,-2.748 0.983,0 1.573,0 2.945,0.393 l 4.513,-15.701 c -4.513,-1.765 -10.009,-2.748 -15.702,-2.748 -11.183,0 -20.217,5.299 -23.354,13.74 -1.966,5.102 -2.356,8.243 -2.356,22.572 l 0,74.979 c 0,13.15 -0.392,21.197 -1.376,30.223 L 0,0 z"
             style="fill:#231f20;fill-opacity:1;fill-rule:nonzero;stroke:none"
             id="path45"
             inkscape:connector-curvature="0" /></g><g
           id="g47"
           transform="translate(786.034,407.382)"><path
             d="m 0,0 c 0.983,-5.496 1.376,-11.97 1.376,-26.103 l 0,-78.316 c 0,-17.273 0.197,-19.629 1.766,-22.376 0.982,-1.766 3.14,-2.748 5.298,-2.748 0.984,0 1.573,0 2.945,0.393 l 4.517,-15.701 c -4.517,-1.765 -10.013,-2.748 -15.705,-2.748 -11.188,0 -20.214,5.299 -23.359,13.74 -1.962,5.102 -2.355,8.243 -2.355,22.572 l 0,74.979 c 0,13.15 -0.393,21.197 -1.372,30.223 L 0,0 z"
             style="fill:#231f20;fill-opacity:1;fill-rule:nonzero;stroke:none"
             id="path49"
             inkscape:connector-curvature="0" /></g><g
           id="g51"
           transform="translate(862.782,306.103)"><path
             d="m 0,0 -1.179,0 c -18.253,0 -24.534,-3.338 -24.534,-15.312 0,-7.85 4.905,-13.15 11.581,-13.15 4.905,0 9.812,2.552 13.739,6.872 L 0,0 z m -51.624,44.556 c 6.478,4.12 9.227,5.496 16.291,8.244 9.816,4.119 18.257,5.888 27.479,5.888 16.88,0 28.461,-6.282 32.389,-17.469 1.371,-4.124 1.765,-7.262 1.765,-18.061 l -0.586,-33.757 0,-1.768 c 0,-10.795 1.765,-14.915 9.419,-20.608 L 21.197,-49.072 c -6.086,2.554 -11.581,7.068 -14.133,12.171 -3.73,-3.531 -4.119,-3.924 -6.085,-5.3 -4.906,-3.529 -11.97,-5.495 -20.213,-5.495 -22.377,0 -34.548,11.384 -34.548,31.405 0,23.552 16.291,34.543 48.287,34.543 1.961,0 3.141,0 5.889,-0.196 l 0,4.124 c 0,11.188 -2.163,14.915 -11.779,14.915 -8.439,0 -18.256,-4.12 -29.047,-11.381 l -11.192,18.842 z"
             style="fill:#231f20;fill-opacity:1;fill-rule:nonzero;stroke:none"
             id="path53"
             inkscape:connector-curvature="0" /></g><g
           id="g55"
           transform="translate(904.657,448.498)"><path
             d="m 0,0 c 0.15,0.257 0.289,0.504 0.427,0.738 0.205,0.36 0.401,0.749 0.61,1.039 0.243,0.281 0.531,0.515 0.774,0.745 1.347,1.234 3.376,3.101 4.475,6.203 1.171,3.331 2.292,12.645 0.937,20.617 0.734,0.346 6.243,7.23 18.961,6.595 8.171,-0.409 15.359,12.263 17.803,26.07 0.5,2.821 -4.851,9.375 -4.451,15.579 0.637,9.856 2.861,16.533 2.861,16.533 0,0 -3.814,1.589 -15.26,-0.636 -6.049,-1.176 -6.04,8.267 -7.63,11.764 C 8.379,103.339 3.61,96.344 0.748,90.622 -9.426,91.575 -18.78,87.037 -18.779,87.037 c 0,0 -28.955,17.947 -63.348,1.605 -17.049,-8.101 -19.27,-19.571 -43.056,-24.991 -26.711,-6.086 -46.968,-1.204 -46.968,-1.204 0,0 11.139,-20.474 36.322,-28.582 8.983,-2.892 13.453,-3.572 6.62,-2.492 -17.785,2.809 -36.372,5.151 -56.756,7.166 -0.92,1.052 -1.953,2.012 -3.078,2.844 -0.975,5.454 -2.338,14.245 -2.422,16.345 0,3.718 -0.869,6.372 -1.761,8.52 14.673,5.68 26.447,14.423 34.426,25.645 7.4,10.391 11.557,22.75 12.364,36.738 1.375,23.897 -3.42,42.583 -15.488,54.211 -4.955,4.775 -11.146,6.213 -11.636,6.46 -2.229,1.1 -4.403,1.637 -6.658,1.637 -2.204,0 -4.383,-0.552 -6.378,-1.633 -1.125,-0.621 -2.079,-1.313 -2.89,-1.982 -16.27,-1.498 -20.473,-11.887 -21.552,-17.339 -0.167,-0.667 -0.276,-1.351 -0.318,-2.039 l -0.276,-1.992 0.728,-2.315 c 1.396,-4.394 5.709,-11.766 18.929,-11.766 0.33,0 0.669,0.004 1,0.013 1.004,-1.343 2.309,-2.894 4.145,-4.335 1.874,-1.467 3.764,-2.148 4.848,-2.522 0.865,-0.67 1.438,-1.4 1.627,-1.784 -0.114,-1.188 -0.206,-2.418 -0.29,-3.662 -0.167,-2.409 -0.322,-4.682 -0.76,-6.531 -1.059,-4.45 -3.66,-8.842 -7.132,-12.052 -3.069,-2.839 -6.495,-4.466 -9.398,-4.466 -0.463,0 -0.916,0.041 -1.355,0.125 -1.363,0.268 -3.483,1.74 -5.529,3.162 -0.786,0.548 -1.577,1.096 -2.355,1.606 -1.786,1.184 -3.576,2.301 -5.349,3.411 -4.191,2.614 -8.143,5.09 -11.485,8.135 -2.618,2.39 -5.646,4.603 -9.515,6.962 -5.785,3.521 -12.589,6.547 -20.791,9.251 -3.773,1.24 -7.788,2.424 -12.284,3.618 -1.802,0.481 -3.634,1.033 -5.463,1.581 -4.245,1.278 -8.636,2.595 -13.178,3.275 -2.803,0.42 -5.814,0.635 -8.959,0.635 -3.564,0 -7.332,-0.272 -11.184,-0.809 -0.991,-0.136 -1.978,-0.291 -2.949,-0.458 -4.784,-0.23 -9.54,-1.334 -14.517,-3.377 -1.388,-0.577 -2.823,-1.232 -4.274,-1.956 l -0.21,-0.108 -0.213,-0.117 -0.811,-0.45 c -1.062,-0.598 -2.142,-1.192 -3.208,-1.801 -11.15,-5.809 -25.003,-14.282 -33.903,-28.507 -0.954,-1.203 -1.911,-2.434 -2.945,-3.79 -0.865,-1.175 -1.714,-2.362 -2.534,-3.55 -2.443,-3.524 -4.789,-7.15 -7.052,-10.653 -1.848,-2.863 -3.739,-5.661 -5.617,-8.44 -5.709,-8.464 -11.618,-17.211 -15.972,-27.021 -3.731,-8.403 -5.751,-19.911 -3.936,-30.624 -9.992,-1.184 -20.022,-2.534 -29.963,-4.042 -1.699,0.533 -3.51,0.805 -5.396,0.805 -1.004,0 -2.02,-0.075 -3.049,-0.224 -2.225,4.005 -3.843,10.923 -5.219,16.765 -2.292,9.798 -4.835,20.628 -11.444,28.079 0.586,3.139 1.239,6.728 1.619,10.574 3.262,0.892 6.09,2.904 7.942,5.74 1.786,2.731 2.506,5.945 2.113,9.22 0.46,3.639 0.725,17.19 -5.262,21.636 -2.305,1.713 -5.626,2.888 -9.206,2.888 -0.527,0 -1.041,-0.019 -1.551,-0.056 -0.146,1.599 -1.514,6.484 4.224,5.403 5.738,-1.081 14.066,4.229 14.346,4.425 2.748,1.933 9.952,8.591 7.988,21.945 -0.578,3.937 -3.444,12.59 -13.053,14.965 -9.609,2.376 -15.574,6.514 -16.556,8.745 0,0 -6.871,2.214 -15.667,0.667 -1.661,-0.293 -6.833,1.5 -15.783,-2.276 -10.994,-4.639 -22.955,-20.467 -28.384,-30.557 0,0 8.167,-0.667 5.834,-7.334 -1.955,-5.584 5.427,-12.081 5.427,-12.081 0.543,-0.699 1.117,-1.282 1.706,-1.78 -0.644,-0.794 -17.21,-13.683 -27.269,-71.135 -1.049,-5.991 -14.756,-11.644 -36.367,-11.644 -16.341,0 -61.365,11.474 -69.893,16.826 25.697,-40.687 56.903,-53.564 90.655,-53.564 6.37,0 13.141,0.355 20.222,1.058 0.017,-0.333 0.03,-0.665 0.046,-0.998 -48.106,-10.739 -102.357,-25.013 -186.586,-101.324 100.287,42.282 243.681,91.472 438.044,91.472 l 1.43,0 C -103.056,0.673 65.995,-50.735 153.793,-89.994 90.264,-30.75 32.445,-8.62 0,0"
             style="fill:#ffffff;fill-opacity:1;fill-rule:nonzero;stroke:none"
             id="path57"
             inkscape:connector-curvature="0" /></g><g
           id="g59"
           transform="translate(821.092,461.898)"><path
             d="m 0,0 c 1.226,3.961 -0.778,5.948 -2.882,7.875 0.36,2.178 -0.15,3.826 -1.02,5.254 2.43,4.437 9.105,2.882 11.903,6.796 3.204,-3.063 8.728,-1.522 13.472,-3.051 3.22,-1.039 5.474,-3.16 8.88,-3.507 1.68,-1.928 -0.453,-3.438 -0.7,-6.303 4.1,-4.266 3.342,-12.643 11.607,-13.593 0.958,-1.855 1.836,-3.758 2.832,-5.59 -15.413,4.287 -28.107,7.351 -44.477,10.831 L 0,0 z m -128.385,17.058 c -9.921,0.728 -19.925,1.305 -29.992,1.74 0.288,0.161 -0.561,0.115 0,0 0.084,1.74 0.715,2.901 -0.155,3.679 -1.514,1.351 -3.856,1.873 -4.889,3.701 0.464,1.51 2.091,4.086 2.965,5.191 2.794,3.973 0.602,3.793 1.652,6.045 1.539,3.298 3.166,6.268 4.773,11.889 0.802,3.212 -0.201,3.108 1.501,3.931 4.596,1.05 9.686,3.25 14.191,3.305 -0.008,-4.087 1.209,-12.117 2.272,-16.233 1.024,-0.514 2.166,-0.911 2.647,-1.978 0.899,-4.057 1.309,-3.151 2.944,-7.227 1.138,-2.828 2.74,-9.842 2.091,-14.043 m -85.786,11.456 c -3.154,0.63 -3.635,12.899 -2.714,15.151 14.751,-1.516 32.702,3.237 48.186,6.604 -0.653,-3.174 -2.029,-4.885 -2.966,-7.921 -1.468,-4.693 -1.418,-10.64 -2.978,-13.861 -1.2,-2.483 -4.395,-3.65 -3.659,-6.464 l 2.283,-2.631 c -8.365,0.215 -16.763,0.349 -25.204,0.358 -1.07,0 -2.132,-0.019 -3.203,-0.021 1.117,1.135 1.054,3.193 0.41,4.462 -1.263,2.489 -7.649,3.112 -9.681,4.254 l -0.474,0.069 z m -35.86,13.399 c -0.268,-1.017 -0.59,-2 -0.895,-2.978 -0.916,-2.935 -4.287,-13.723 -4.593,-20.591 -0.108,-0.665 -0.012,0.521 0,0 -9.289,-0.483 -18.499,-1.091 -27.625,-1.821 -3.851,0.276 -7.403,0.391 -9.318,4.042 -0.322,1.326 -0.762,3.576 1.38,7.591 5.036,9.448 10.582,13.694 20.331,18.42 1.393,0.677 2.84,1.3 4.333,1.874 3.07,1.779 5.315,2.727 9.736,1.779 5.484,-1.997 10.474,-2.856 6.651,-8.316 M -411.859,-3.022 c -5.19,0.918 -12.096,-0.454 -14.458,4.235 -0.582,19.624 10.33,30.628 26.311,37.83 9.386,-8.007 16.178,-22.842 19.131,-35.555 -10.507,-1.999 -20.846,-4.168 -30.984,-6.51 m 306.214,18.129 c -1.075,0.102 -2.149,0.209 -3.224,0.31 -0.711,2.896 -3.459,5.28 -6.115,5.801 -0.816,2.482 -3.714,20.312 -3.714,23.534 0,4.819 -2.677,5.622 -4.458,15.413 16.102,4.266 30.122,12.317 39.11,24.963 5.926,8.321 9.674,18.622 10.393,31.144 1.196,20.691 -3.049,36.36 -12.543,46.204 -0.673,0.703 -3.787,4.345 -10.544,4.776 -0.397,0.026 -0.816,-0.085 -1.204,-0.299 -0.896,-0.493 -3.493,-2.877 -4.183,-3.139 -7.633,-0.042 -13.878,-2.101 -15.011,-9.322 -0.062,-0.101 -0.067,-0.197 -0.038,-0.289 -0.012,-0.104 -0.029,-0.203 -0.042,-0.307 1.548,-4.883 7.947,-4.562 14.196,-3.963 2.748,-1.732 3.68,-4.906 6.269,-6.931 0.967,-0.756 2.356,-0.886 3.476,-1.56 0.046,-0.027 0.104,-0.054 0.151,-0.089 3.471,-2.274 7.481,-6.69 6.93,-11.876 -0.398,-3.777 -0.385,-7.949 -1.318,-11.883 -1.601,-6.74 -5.408,-12.93 -10.276,-17.434 -5.814,-5.373 -13.153,-8.347 -20.08,-6.987 -4.429,0.868 -8.051,3.916 -11.732,6.347 -6.265,4.14 -12.568,7.48 -18.143,12.566 -2.384,2.172 -5.119,4.05 -7.871,5.726 -5.785,3.521 -12.151,6.112 -18.571,8.227 -3.856,1.269 -7.75,2.396 -11.673,3.438 -5.814,1.539 -11.836,3.77 -17.495,4.617 -5.488,0.822 -11.498,0.585 -17.082,-0.191 -1.116,-0.156 -2.216,-0.332 -3.291,-0.527 -4.145,-0.11 -7.942,-1.118 -11.56,-2.603 -1.205,-0.498 -2.388,-1.044 -3.568,-1.631 -1.384,-0.772 -2.777,-1.548 -4.17,-2.334 -11.752,-6.111 -23.179,-13.729 -30.193,-25.252 -1.041,-1.303 -2.074,-2.624 -3.103,-3.965 -0.795,-1.085 -1.577,-2.185 -2.351,-3.301 -2.321,-3.347 -4.567,-6.818 -6.859,-10.365 -7.42,-11.468 -15.463,-21.993 -20.791,-33.987 -4.994,-11.244 -5.303,-26.378 1.108,-35.412 -15.738,-1.623 -31.18,-3.633 -46.316,-5.977 -2.501,1.884 -6.395,1.288 -9.988,-0.423 -1.971,1.185 -3.6,2.824 -4.978,4.798 -9.025,12.936 -7.27,40.246 -20.188,47.993 0.724,5.505 2.915,13.503 2.794,21.544 -0.084,5.63 -5.688,15.379 2.305,16.776 1.2,-3.643 -0.021,-5.468 0,-8.222 6.428,1.154 1.535,-1.751 1.807,-4.442 2.543,-1.922 6.446,0.086 5.265,4.276 2.075,2.709 -3.229,8.727 -0.661,12.828 -2.187,1.654 -6.888,-0.051 -10.527,-0.328 -10.561,12.509 -1.393,34.394 14.965,26.807 2.037,3.614 7.788,4.44 8.06,9.375 -0.277,1.918 -0.549,3.84 -0.824,5.755 1.049,3.457 -1.104,4.011 -1.975,5.592 -9.205,1.428 -18.887,2.225 -22.693,10.853 -5.396,-1.47 -10.774,-3.707 -15.133,-0.986 -1.534,-0.22 -3.07,-0.44 -4.604,-0.66 -7.867,-5.405 -15.237,-11.185 -19.57,-19.241 2.714,0.36 3.107,2.468 6.742,2.137 -0.757,-3.199 -4.007,-4.529 -4.768,-7.729 2.087,0.149 2.229,1.757 4.441,1.807 -0.397,-2.786 -3.387,-3.626 -3.785,-6.412 1.155,0.164 2.305,0.329 3.455,0.494 -0.355,-1.79 -1.288,-3.145 -1.643,-4.935 1.489,-3.256 1.342,2.919 4.441,1.811 -0.841,-4.848 -1.873,-3.154 0.988,-6.91 -12.479,-28.756 -19.974,-28.399 -28.776,-78.12 -7.303,-24.661 -70.278,-23.555 -93.909,-8.72 20.787,-24.367 55.652,-29.955 99.664,-23.35 -1.171,-7.261 -1.041,-14.763 0.64,-20.982 -62.565,-17.01 -116.619,-40.695 -158.184,-69.493 102.461,43.196 204.053,78.295 399.081,78.12 172.434,-0.153 291.63,-34.663 392.992,-75.377 -36.308,24.062 -82.302,44.549 -134.863,60.384 0.125,0.703 -0.151,4.689 -2.514,5.36 -0.966,1.995 -1.242,4.413 -2.978,5.935 0.071,6.416 -1.811,15.396 2.476,20.785 0.845,0.771 2.33,0.644 3.731,0.633 0.531,-0.66 -0.744,-1.706 -0.61,-2.957 2.546,-3.538 3.659,-7.95 7.728,-10.556 0.962,-2.861 -1.576,-4.304 -3.63,-5.977 -0.908,-0.74 -2.869,-1.74 -3.141,-2.154 -0.519,-0.786 0.627,-0.381 0.355,-1.194 -0.108,-0.314 -0.731,-0.328 -0.744,-0.688 -0.025,-0.92 1.422,-1.353 0.313,-2.865 4.622,-2.442 9.989,-2.305 13.096,0.947 1.012,1.061 1.819,3.148 3.066,4.693 1.309,1.629 3.116,2.75 3.475,3.766 1.485,4.221 1.28,17.207 -1.024,19.823 -0.372,2.637 0.004,3.047 -1.41,5.461 2.121,-1.111 8.872,0.639 14.028,4.83 4.463,-0.744 7.495,0.531 10.097,2.407 3.124,-0.607 5.683,-1.817 7.883,-1.062 1.105,0.378 1.096,1.505 1.937,2.122 1.601,1.184 3.074,4.101 3.463,5.172 -1.957,1.403 -1.501,5.107 0,7.283 1.874,-0.499 1.597,-2.312 2.614,-3.337 3.572,2.794 3.467,8.739 -0.832,10.536 -0.645,2.225 0.167,4.711 1.15,7.047 -5.382,-1.196 -7.423,-7.098 -14.668,-5.667 4.5,7.524 10.548,12.863 15.006,20.448 -8.26,-3.722 -13.805,-11.272 -21.075,-16.397 -1.317,0.529 -0.874,2.128 -1.116,3.312 -0.879,0.316 -1.205,-0.152 -1.841,-0.182 0.423,7.55 3.008,14.269 5.696,20.4 -4.985,-3.256 -8.373,-8.764 -10.502,-16.05 -2.257,-0.502 -1.99,1.48 -3.463,2.114 -1.2,0.303 -1.421,-0.771 -2.526,-0.6 -0.92,0.297 -1.103,1.045 -1.794,1.489 C 78.789,68.271 77.514,66.374 74.172,67.388 73.54,64.579 70.893,64.615 68.681,64.036 67.965,61.346 66.167,60.182 64.121,59.37 58.806,59.642 55.38,64.101 50.9,66.572 46.212,69.159 39.14,71.742 31.771,72.75 21.339,74.18 11.368,70.688 4.923,66.227 2.66,64.659 1.2,62.388 -1.351,60.514 -4.722,58.04 -9.272,56.3 -13.305,53.448 c -7.469,-5.287 -14.622,-10.561 -24.839,-12.82 -5.082,-1.125 -10.54,-2.488 -15.391,-1.878 -3.175,0.402 -7.05,0.662 -13.983,2.038 5.062,-3.892 10.724,-7.481 18.127,-9.614 13.217,-3.808 27.625,-3.135 40.905,-5.335 -1.109,-1.946 -4.831,-2.246 -5.876,-5.234 -0.444,-1.27 0.2,-3.356 -0.189,-5.285 -0.731,-3.634 -1.944,-12.296 -1.359,-13.128 -28.838,5.769 -56.564,9.641 -87.618,12.71 l -2.117,0.205 z"
             style="fill:#231f20;fill-opacity:1;fill-rule:nonzero;stroke:none"
             id="path61"
             inkscape:connector-curvature="0" /></g><g
           id="g63"
           transform="translate(486.301,157.501)"><path
             d="M 0,0 -3.335,36.064 -15.393,0 -25.623,0 -37.454,36.459 -40.679,0 l -12.01,0 5.777,56.916 0.183,1.798 14.689,0 10.618,-33.068 c 0.369,-1.198 0.777,-2.665 1.171,-4.151 0.371,1.358 0.749,2.703 1.093,3.849 l 10.504,33.37 15.337,0 L 12.308,0 0,0 z"
             style="fill:#231f20;fill-opacity:1;fill-rule:nonzero;stroke:none"
             id="path65"
             inkscape:connector-curvature="0" /></g><g
           id="g67"
           transform="translate(506.903,157.5)"><path
             d="m 0,0 5.78,56.918 0.181,1.798 14.693,0 10.62,-33.07 c 0.368,-1.197 0.774,-2.663 1.167,-4.147 0.371,1.357 0.748,2.702 1.092,3.847 l 10.504,33.37 15.338,0 L 65,0.002 52.691,0.002 49.354,36.061 37.299,0.002 27.068,0.002 15.238,36.464 12.012,0 0,0 z"
             style="fill:#231f20;fill-opacity:1;fill-rule:nonzero;stroke:none"
             id="path69"
             inkscape:connector-curvature="0" /></g><g
           id="g71"
           transform="translate(583.563,167.017)"><path
             d="m 0,0 c -1.606,3.256 -2.116,5.911 -2.086,12.396 l 0,34.803 0,2.001 12.388,0 0,-34.813 C 10.287,10.269 10.634,6.929 10.947,5.861 11.465,4.367 12.518,3.165 14.184,2.247 15.86,1.331 18.16,0.772 20.88,0.776 c 4.641,0 7.342,1.198 8.534,2.929 0.787,1.125 1.169,1.923 1.449,3.12 0.272,1.194 0.387,2.846 0.383,5.363 l 0,37.012 12.385,0 0,-36.804 C 43.625,7.828 43.409,4.618 42.572,1.892 41.744,-0.845 40.2,-2.947 38.06,-4.896 33.738,-8.895 28.131,-10.483 20.669,-10.461 l -0.259,0 C 8.961,-10.461 2.667,-5.59 0,0"
             style="fill:#231f20;fill-opacity:1;fill-rule:nonzero;stroke:none"
             id="path73"
             inkscape:connector-curvature="0" /></g><g
           id="g75"
           transform="translate(673.662,157.501)"><path
             d="m 0,0 -18.202,30.015 c -1.109,1.874 -2.311,4.047 -3.429,6.127 0.056,-1.779 0.102,-3.783 0.131,-6.015 L -20.939,0 l -12.634,0 0,56.715 0,1.999 12.775,0 18.402,-30.744 c 0.896,-1.502 1.762,-3.025 2.565,-4.472 -0.099,1.811 -0.175,3.732 -0.203,5.626 l -0.334,29.59 12.194,0 L 11.826,0 0,0 z"
             style="fill:#231f20;fill-opacity:1;fill-rule:nonzero;stroke:none"
             id="path77"
             inkscape:connector-curvature="0" /></g><g
           id="g79"
           transform="translate(699.241,157.501)"><path
             d="m 0,0 0,56.814 0,2.001 12.389,0 L 12.389,0 0,0 z"
             style="fill:#231f20;fill-opacity:1;fill-rule:nonzero;stroke:none"
             id="path81"
             inkscape:connector-curvature="0" /></g><g
           id="g83"
           transform="translate(736.45,157.5)"><path
             d="m 0,0 -0.002,47.688 -16.243,0 0,9.027 0,2.001 46.099,0 L 28.38,47.69 12.177,47.69 12.177,0 0,0 z"
             style="fill:#231f20;fill-opacity:1;fill-rule:nonzero;stroke:none"
             id="path85"
             inkscape:connector-curvature="0" /></g><g
           id="g87"
           transform="translate(774.525,157.5)"><path
             d="m 0,0 0,56.816 0,2.001 12.387,0 L 12.387,0 0,0 z"
             style="fill:#231f20;fill-opacity:1;fill-rule:nonzero;stroke:none"
             id="path89"
             inkscape:connector-curvature="0" /></g><g
           id="g91"
           transform="translate(800.738,157.5)"><path
             d="m 0,0 0,56.504 0,1.999 38.414,0 -1.803,-11.023 -24.224,0 0,-11.512 20.538,0 0,-11.024 -20.435,0 0,-13.607 26.517,0 L 39.007,0 0,0 z"
             style="fill:#231f20;fill-opacity:1;fill-rule:nonzero;stroke:none"
             id="path93"
             inkscape:connector-curvature="0" /></g><g
           id="g95"
           transform="translate(847.793,161.621)"><path
             d="m 0,0 -1.73,0.941 5.318,10.15 1.786,-0.974 c 5.535,-3.011 10.581,-4.361 16.333,-4.368 3.738,0.009 5.812,0.485 7.681,1.748 l 0.022,0.018 0.056,0.031 c 2.326,1.478 3.319,3.077 3.343,5.11 -0.035,1.682 -0.475,2.728 -1.774,3.902 -1.311,1.157 -3.682,2.275 -7.314,3.176 L 15.67,21.829 C 7.086,23.935 1.058,30.188 1.053,37.918 c -0.017,5.32 2.425,9.977 6.43,13.124 4.006,3.164 9.509,4.912 15.799,4.912 7.401,-0.019 15.114,-2.031 20.339,-5.714 l 1.533,-1.089 -5.809,-9.358 -1.693,1.031 c -4.571,2.776 -9.228,4.21 -13.951,4.21 -3.227,0.007 -5.763,-0.714 -7.338,-1.781 -1.571,-1.096 -2.269,-2.326 -2.299,-4.076 0.04,-1.681 0.887,-3.081 3.786,-4.332 l 0.034,-0.013 0.049,-0.023 c 1.45,-0.658 1.549,-0.806 4.22,-1.436 l 0.045,-0.01 7.436,-1.993 c 4.495,-1.14 8.988,-3.287 11.939,-6.083 2.844,-2.877 4.441,-7.073 4.459,-11.266 C 46.026,7.559 42.22,1.474 36.094,-1.878 31.945,-4.179 26.887,-5.273 21.188,-5.273 13.727,-5.271 6.292,-3.418 0,0"
             style="fill:#231f20;fill-opacity:1;fill-rule:nonzero;stroke:none"
             id="path97"
             inkscape:connector-curvature="0" /></g><g
           id="g99"
           transform="translate(329.08,165.09)"><path
             d="m 0,0 c -4.993,5.317 -7.855,12.785 -7.851,21.346 -0.003,8.647 3.055,16.332 8.185,21.855 5.123,5.525 12.339,8.872 20.437,8.867 6.029,-0.016 12.211,-1.62 16.587,-4.785 l -1.179,-1.617 1.179,1.617 1.646,-1.2 -6.646,-8.755 -1.553,0.988 C 27.608,40.337 24.621,41.24 20.876,41.253 14.946,41.228 10.101,38.331 7.581,33.162 6.191,30.283 5.476,26.644 5.476,21.033 5.533,13.661 6.663,10.663 9.878,7.079 c 2.99,-3.241 6.737,-4.779 11.417,-4.8 3.404,-0.005 6.864,0.962 9.572,2.556 l 0.052,0.031 0.066,0.032 c 0.207,0.106 0.559,0.28 1.01,0.554 l 1.529,0.929 6.515,-8.463 -1.598,-1.221 C 33.92,-6.722 27.287,-8.408 20.248,-8.425 l -0.033,0 C 12.075,-8.425 4.98,-5.315 0,0"
             style="fill:#231f20;fill-opacity:1;fill-rule:nonzero;stroke:none"
             id="path101"
             inkscape:connector-curvature="0" /></g><g
           id="g103"
           transform="translate(397.59,206.345)"><path
             d="m 0,0 c -4.466,0.031 -8.738,-2.057 -10.399,-4.677 -1.849,-2.706 -2.806,-6.899 -2.797,-13.551 -0.015,-7.439 1.261,-13.084 3.449,-16.418 l 0.023,-0.037 0.023,-0.038 c 1.573,-2.718 5.277,-4.561 10.854,-4.567 6.125,0.08 9.623,2.204 11.358,6.518 1.35,3.305 1.83,6.134 1.841,11.92 0,7.311 -0.832,11.559 -2.495,14.786 C 9.475,-1.683 5.814,-0.072 0,0 m 0.315,10.812 c 9.312,0.031 16.423,-3.651 21.232,-9.513 4.384,-5.186 6.248,-12.054 6.238,-21.099 0.027,-9.384 -1.549,-15.642 -6.009,-20.975 -4.93,-6.127 -11.329,-9.015 -20.502,-9.015 -0.109,0 -0.22,0 -0.33,10e-4 -8.58,-0.06 -14.711,2.34 -19.628,7.906 -5.372,6.007 -7.871,13.271 -7.843,22.602 -0.003,9.051 2.458,16.592 7.145,21.898 4.677,5.313 11.541,8.213 19.697,8.196 l 0,-0.001 z"
             style="fill:#231f20;fill-opacity:1;fill-rule:nonzero;stroke:none"
             id="path105"
             inkscape:connector-curvature="0" /></g></g></g></g></svg>