<?xml version="1.0" encoding="UTF-8" standalone="no"?>
<!-- Created with Inkscape (http://www.inkscape.org/) -->

<svg
   xmlns:dc="http://purl.org/dc/elements/1.1/"
   xmlns:cc="http://creativecommons.org/ns#"
   xmlns:rdf="http://www.w3.org/1999/02/22-rdf-syntax-ns#"
   xmlns:svg="http://www.w3.org/2000/svg"
   xmlns="http://www.w3.org/2000/svg"
   xmlns:sodipodi="http://sodipodi.sourceforge.net/DTD/sodipodi-0.dtd"
   xmlns:inkscape="http://www.inkscape.org/namespaces/inkscape"
   id="svg2"
   sodipodi:version="0.32"
   inkscape:version="0.48.2 r9819"
   width="990.09125"
   height="591.00714"
   xml:space="preserve"
   sodipodi:docname="mozilla_community_logo.svg"
   inkscape:output_extension="org.inkscape.output.svg.inkscape"
   version="1.1"><metadata
     id="metadata7"><rdf:RDF><cc:Work
         rdf:about=""><dc:format>image/svg+xml</dc:format><dc:type
           rdf:resource="http://purl.org/dc/dcmitype/StillImage" /><dc:title></dc:title></cc:Work></rdf:RDF></metadata><defs
     id="defs5"><inkscape:perspective
       sodipodi:type="inkscape:persp3d"
       inkscape:vp_x="0 : 526.18109 : 1"
       inkscape:vp_y="0 : 1000 : 0"
       inkscape:vp_z="744.09448 : 526.18109 : 1"
       inkscape:persp3d-origin="372.04724 : 350.78739 : 1"
       id="perspective9" /><clipPath
       clipPathUnits="userSpaceOnUse"
       id="clipPath19"><path
         d="M 0,792 1224,792 1224,0 0,0 0,792 z"
         id="path21"
         inkscape:connector-curvature="0" /></clipPath></defs><sodipodi:namedview
     inkscape:window-height="1003"
     inkscape:window-width="638"
     inkscape:pageshadow="2"
     inkscape:pageopacity="0.0"
     guidetolerance="10.0"
     gridtolerance="10.0"
     objecttolerance="10.0"
     borderopacity="1.0"
     bordercolor="#666666"
     pagecolor="#ffffff"
     id="base"
     showgrid="false"
     inkscape:zoom="0.36405229"
     inkscape:cx="491.84121"
     inkscape:cy="302.31186"
     inkscape:window-x="0"
     inkscape:window-y="19"
     inkscape:current-layer="g11"
     fit-margin-top="0"
     fit-margin-left="0"
     fit-margin-right="0"
     fit-margin-bottom="0"
     inkscape:window-maximized="0" /><g
     id="g11"
     inkscape:groupmode="layer"
     inkscape:label="mozilla_community_logo"
     transform="matrix(1.25,0,0,-1.25,-273.15879,783.6953)"><g
       id="g27"
       transform="translate(312.74503,355.72251)"
       style="fill:#ffffff"><path
         d="M 0,0 23.75,6.479 C 25.517,3.73 26.303,1.376 27.282,-3.73 34.154,2.944 42.594,6.479 51.818,6.479 c 8.244,0 15.114,-2.749 20.412,-8.244 1.374,-1.376 1.962,-2.158 3.928,-4.906 9.224,9.419 17.468,13.15 28.46,13.15 7.85,0 15.31,-2.355 19.822,-6.282 5.693,-4.906 7.46,-10.795 7.46,-24.535 l 0,-71.444 -25.515,0 0,66.342 c 0,11.974 -1.376,14.329 -8.244,14.329 -4.906,0 -11.778,-3.337 -17.47,-8.44 l 0,-72.231 -24.927,0 0,65.359 c 0,12.564 -1.765,15.509 -9.03,15.509 -4.906,0 -11.582,-2.552 -17.272,-7.658 l 0,-73.21 -25.712,0 0,70.073 C 3.73,-11.188 2.748,-4.906 0,0"
         style="fill:#ffffff;fill-opacity:1;fill-rule:nonzero;stroke:none"
         id="path29"
         inkscape:connector-curvature="0" /></g><g
       id="g31"
       transform="translate(508.47503,342.96651)"
       style="fill:#ffffff"><path
         d="m 0,0 c -6.28,0 -11.383,-3.928 -13.543,-10.21 -1.767,-5.299 -2.748,-12.363 -2.748,-22.376 0,-11.577 1.18,-20.214 3.338,-25.32 2.354,-5.492 8.244,-8.24 13.346,-8.24 11.384,0 16.291,10.206 16.291,33.954 0,13.546 -1.765,22.376 -5.299,26.892 C 8.833,-1.966 4.709,0 0,0 m -0.394,19.432 c 14.33,0 25.518,-4.911 34.155,-15.117 8.047,-9.419 11.581,-20.41 11.581,-36.705 0,-17.269 -3.927,-29.047 -12.562,-38.859 -7.656,-8.637 -17.665,-13.936 -33.174,-13.936 -27.281,0 -45.141,20.411 -45.141,52.013 0,31.599 18.056,52.604 45.141,52.604"
         style="fill:#ffffff;fill-opacity:1;fill-rule:nonzero;stroke:none"
         id="path33"
         inkscape:connector-curvature="0" /></g><g
       id="g35"
       transform="translate(564.75003,359.84651)"
       style="fill:#ffffff"><path
         d="m 0,0 74.585,0 0,-18.06 -44.358,-63.594 46.123,0 -6.277,-18.252 -74,0 0,16.291 47.303,65.162 L 0,-18.453 0,0 z"
         style="fill:#ffffff;fill-opacity:1;fill-rule:nonzero;stroke:none"
         id="path37"
         inkscape:connector-curvature="0" /></g><g
       id="g39"
       transform="translate(654.50903,358.66651)"
       style="fill:#ffffff"><path
         d="m 0,0 26.3,4.124 0,-102.851 -26.3,0 L 0,0 z m 13.543,45.735 c 8.833,0 15.897,-7.264 15.897,-16.291 0,-9.029 -7.26,-16.295 -16.291,-16.295 -8.833,0 -16.093,7.266 -16.093,16.295 0,9.027 7.457,16.291 16.487,16.291"
         style="fill:#ffffff;fill-opacity:1;fill-rule:nonzero;stroke:none"
         id="path41"
         inkscape:connector-curvature="0" /></g><g
       id="g43"
       transform="translate(729.13703,405.18451)"
       style="fill:#ffffff"><path
         d="m 0,0 c 0.979,-5.496 1.372,-11.97 1.372,-26.103 l 0,-78.316 c 0,-17.273 0.196,-19.629 1.765,-22.376 0.982,-1.766 3.14,-2.748 5.299,-2.748 0.983,0 1.573,0 2.945,0.393 l 4.513,-15.701 c -4.513,-1.765 -10.009,-2.748 -15.702,-2.748 -11.183,0 -20.217,5.299 -23.354,13.74 -1.966,5.102 -2.356,8.243 -2.356,22.572 l 0,74.979 c 0,13.15 -0.392,21.197 -1.376,30.223 L 0,0 z"
         style="fill:#ffffff;fill-opacity:1;fill-rule:nonzero;stroke:none"
         id="path45"
         inkscape:connector-curvature="0" /></g><g
       id="g47"
       transform="translate(781.63903,405.18451)"
       style="fill:#ffffff"><path
         d="m 0,0 c 0.983,-5.496 1.376,-11.97 1.376,-26.103 l 0,-78.316 c 0,-17.273 0.197,-19.629 1.766,-22.376 0.982,-1.766 3.14,-2.748 5.298,-2.748 0.984,0 1.573,0 2.945,0.393 l 4.517,-15.701 c -4.517,-1.765 -10.013,-2.748 -15.705,-2.748 -11.188,0 -20.214,5.299 -23.359,13.74 -1.962,5.102 -2.355,8.243 -2.355,22.572 l 0,74.979 c 0,13.15 -0.393,21.197 -1.372,30.223 L 0,0 z"
         style="fill:#ffffff;fill-opacity:1;fill-rule:nonzero;stroke:none"
         id="path49"
         inkscape:connector-curvature="0" /></g><g
       id="g51"
       transform="translate(858.38703,303.90551)"
       style="fill:#ffffff"><path
         d="m 0,0 -1.179,0 c -18.253,0 -24.534,-3.338 -24.534,-15.312 0,-7.85 4.905,-13.15 11.581,-13.15 4.905,0 9.812,2.552 13.739,6.872 L 0,0 z m -51.624,44.556 c 6.478,4.12 9.227,5.496 16.291,8.244 9.816,4.119 18.257,5.888 27.479,5.888 16.88,0 28.461,-6.282 32.389,-17.469 1.371,-4.124 1.765,-7.262 1.765,-18.061 l -0.586,-33.757 0,-1.768 c 0,-10.795 1.765,-14.915 9.419,-20.608 L 21.197,-49.072 c -6.086,2.554 -11.581,7.068 -14.133,12.171 -3.73,-3.531 -4.119,-3.924 -6.085,-5.3 -4.906,-3.529 -11.97,-5.495 -20.213,-5.495 -22.377,0 -34.548,11.384 -34.548,31.405 0,23.552 16.291,34.543 48.287,34.543 1.961,0 3.141,0 5.889,-0.196 l 0,4.124 c 0,11.188 -2.163,14.915 -11.779,14.915 -8.439,0 -18.256,-4.12 -29.047,-11.381 l -11.192,18.842 z"
         style="fill:#ffffff;fill-opacity:1;fill-rule:nonzero;stroke:none"
         id="path53"
         inkscape:connector-curvature="0" /></g><g
       id="g59"
       transform="translate(816.69703,459.70051)"
       style="fill:#ffffff"><path
         d="m 0,0 c 1.226,3.961 -0.778,5.948 -2.882,7.875 0.36,2.178 -0.15,3.826 -1.02,5.254 2.43,4.437 9.105,2.882 11.903,6.796 3.204,-3.063 8.728,-1.522 13.472,-3.051 3.22,-1.039 5.474,-3.16 8.88,-3.507 1.68,-1.928 -0.453,-3.438 -0.7,-6.303 4.1,-4.266 3.342,-12.643 11.607,-13.593 0.958,-1.855 1.836,-3.758 2.832,-5.59 -15.413,4.287 -28.107,7.351 -44.477,10.831 L 0,0 z m -128.385,17.058 c -9.921,0.728 -19.925,1.305 -29.992,1.74 0.288,0.161 -0.561,0.115 0,0 0.084,1.74 0.715,2.901 -0.155,3.679 -1.514,1.351 -3.856,1.873 -4.889,3.701 0.464,1.51 2.091,4.086 2.965,5.191 2.794,3.973 0.602,3.793 1.652,6.045 1.539,3.298 3.166,6.268 4.773,11.889 0.802,3.212 -0.201,3.108 1.501,3.931 4.596,1.05 9.686,3.25 14.191,3.305 -0.008,-4.087 1.209,-12.117 2.272,-16.233 1.024,-0.514 2.166,-0.911 2.647,-1.978 0.899,-4.057 1.309,-3.151 2.944,-7.227 1.138,-2.828 2.74,-9.842 2.091,-14.043 m -85.786,11.456 c -3.154,0.63 -3.635,12.899 -2.714,15.151 14.751,-1.516 32.702,3.237 48.186,6.604 -0.653,-3.174 -2.029,-4.885 -2.966,-7.921 -1.468,-4.693 -1.418,-10.64 -2.978,-13.861 -1.2,-2.483 -4.395,-3.65 -3.659,-6.464 l 2.283,-2.631 c -8.365,0.215 -16.763,0.349 -25.204,0.358 -1.07,0 -2.132,-0.019 -3.203,-0.021 1.117,1.135 1.054,3.193 0.41,4.462 -1.263,2.489 -7.649,3.112 -9.681,4.254 l -0.474,0.069 z m -35.86,13.399 c -0.268,-1.017 -0.59,-2 -0.895,-2.978 -0.916,-2.935 -4.287,-13.723 -4.593,-20.591 -0.108,-0.665 -0.012,0.521 0,0 -9.289,-0.483 -18.499,-1.091 -27.625,-1.821 -3.851,0.276 -7.403,0.391 -9.318,4.042 -0.322,1.326 -0.762,3.576 1.38,7.591 5.036,9.448 10.582,13.694 20.331,18.42 1.393,0.677 2.84,1.3 4.333,1.874 3.07,1.779 5.315,2.727 9.736,1.779 5.484,-1.997 10.474,-2.856 6.651,-8.316 M -411.859,-3.022 c -5.19,0.918 -12.096,-0.454 -14.458,4.235 -0.582,19.624 10.33,30.628 26.311,37.83 9.386,-8.007 16.178,-22.842 19.131,-35.555 -10.507,-1.999 -20.846,-4.168 -30.984,-6.51 m 306.214,18.129 c -1.075,0.102 -2.149,0.209 -3.224,0.31 -0.711,2.896 -3.459,5.28 -6.115,5.801 -0.816,2.482 -3.714,20.312 -3.714,23.534 0,4.819 -2.677,5.622 -4.458,15.413 16.102,4.266 30.122,12.317 39.11,24.963 5.926,8.321 9.674,18.622 10.393,31.144 1.196,20.691 -3.049,36.36 -12.543,46.204 -0.673,0.703 -3.787,4.345 -10.544,4.776 -0.397,0.026 -0.816,-0.085 -1.204,-0.299 -0.896,-0.493 -3.493,-2.877 -4.183,-3.139 -7.633,-0.042 -13.878,-2.101 -15.011,-9.322 -0.062,-0.101 -0.067,-0.197 -0.038,-0.289 -0.012,-0.104 -0.029,-0.203 -0.042,-0.307 1.548,-4.883 7.947,-4.562 14.196,-3.963 2.748,-1.732 3.68,-4.906 6.269,-6.931 0.967,-0.756 2.356,-0.886 3.476,-1.56 0.046,-0.027 0.104,-0.054 0.151,-0.089 3.471,-2.274 7.481,-6.69 6.93,-11.876 -0.398,-3.777 -0.385,-7.949 -1.318,-11.883 -1.601,-6.74 -5.408,-12.93 -10.276,-17.434 -5.814,-5.373 -13.153,-8.347 -20.08,-6.987 -4.429,0.868 -8.051,3.916 -11.732,6.347 -6.265,4.14 -12.568,7.48 -18.143,12.566 -2.384,2.172 -5.119,4.05 -7.871,5.726 -5.785,3.521 -12.151,6.112 -18.571,8.227 -3.856,1.269 -7.75,2.396 -11.673,3.438 -5.814,1.539 -11.836,3.77 -17.495,4.617 -5.488,0.822 -11.498,0.585 -17.082,-0.191 -1.116,-0.156 -2.216,-0.332 -3.291,-0.527 -4.145,-0.11 -7.942,-1.118 -11.56,-2.603 -1.205,-0.498 -2.388,-1.044 -3.568,-1.631 -1.384,-0.772 -2.777,-1.548 -4.17,-2.334 -11.752,-6.111 -23.179,-13.729 -30.193,-25.252 -1.041,-1.303 -2.074,-2.624 -3.103,-3.965 -0.795,-1.085 -1.577,-2.185 -2.351,-3.301 -2.321,-3.347 -4.567,-6.818 -6.859,-10.365 -7.42,-11.468 -15.463,-21.993 -20.791,-33.987 -4.994,-11.244 -5.303,-26.378 1.108,-35.412 -15.738,-1.623 -31.18,-3.633 -46.316,-5.977 -2.501,1.884 -6.395,1.288 -9.988,-0.423 -1.971,1.185 -3.6,2.824 -4.978,4.798 -9.025,12.936 -7.27,40.246 -20.188,47.993 0.724,5.505 2.915,13.503 2.794,21.544 -0.084,5.63 -5.688,15.379 2.305,16.776 1.2,-3.643 -0.021,-5.468 0,-8.222 6.428,1.154 1.535,-1.751 1.807,-4.442 2.543,-1.922 6.446,0.086 5.265,4.276 2.075,2.709 -3.229,8.727 -0.661,12.828 -2.187,1.654 -6.888,-0.051 -10.527,-0.328 -10.561,12.509 -1.393,34.394 14.965,26.807 2.037,3.614 7.788,4.44 8.06,9.375 -0.277,1.918 -0.549,3.84 -0.824,5.755 1.049,3.457 -1.104,4.011 -1.975,5.592 -9.205,1.428 -18.887,2.225 -22.693,10.853 -5.396,-1.47 -10.774,-3.707 -15.133,-0.986 -1.534,-0.22 -3.07,-0.44 -4.604,-0.66 -7.867,-5.405 -15.237,-11.185 -19.57,-19.241 2.714,0.36 3.107,2.468 6.742,2.137 -0.757,-3.199 -4.007,-4.529 -4.768,-7.729 2.087,0.149 2.229,1.757 4.441,1.807 -0.397,-2.786 -3.387,-3.626 -3.785,-6.412 1.155,0.164 2.305,0.329 3.455,0.494 -0.355,-1.79 -1.288,-3.145 -1.643,-4.935 1.489,-3.256 1.342,2.919 4.441,1.811 -0.841,-4.848 -1.873,-3.154 0.988,-6.91 -12.479,-28.756 -19.974,-28.399 -28.776,-78.12 -7.303,-24.661 -70.278,-23.555 -93.909,-8.72 20.787,-24.367 55.652,-29.955 99.664,-23.35 -1.171,-7.261 -1.041,-14.763 0.64,-20.982 -62.565,-17.01 -116.619,-40.695 -158.184,-69.493 102.461,43.196 204.053,78.295 399.081,78.12 172.434,-0.153 291.63,-34.663 392.992,-75.377 -36.308,24.062 -82.302,44.549 -134.863,60.384 0.125,0.703 -0.151,4.689 -2.514,5.36 -0.966,1.995 -1.242,4.413 -2.978,5.935 0.071,6.416 -1.811,15.396 2.476,20.785 0.845,0.771 2.33,0.644 3.731,0.633 0.531,-0.66 -0.744,-1.706 -0.61,-2.957 2.546,-3.538 3.659,-7.95 7.728,-10.556 0.962,-2.861 -1.576,-4.304 -3.63,-5.977 -0.908,-0.74 -2.869,-1.74 -3.141,-2.154 -0.519,-0.786 0.627,-0.381 0.355,-1.194 -0.108,-0.314 -0.731,-0.328 -0.744,-0.688 -0.025,-0.92 1.422,-1.353 0.313,-2.865 4.622,-2.442 9.989,-2.305 13.096,0.947 1.012,1.061 1.819,3.148 3.066,4.693 1.309,1.629 3.116,2.75 3.475,3.766 1.485,4.221 1.28,17.207 -1.024,19.823 -0.372,2.637 0.004,3.047 -1.41,5.461 2.121,-1.111 8.872,0.639 14.028,4.83 4.463,-0.744 7.495,0.531 10.097,2.407 3.124,-0.607 5.683,-1.817 7.883,-1.062 1.105,0.378 1.096,1.505 1.937,2.122 1.601,1.184 3.074,4.101 3.463,5.172 -1.957,1.403 -1.501,5.107 0,7.283 1.874,-0.499 1.597,-2.312 2.614,-3.337 3.572,2.794 3.467,8.739 -0.832,10.536 -0.645,2.225 0.167,4.711 1.15,7.047 -5.382,-1.196 -7.423,-7.098 -14.668,-5.667 4.5,7.524 10.548,12.863 15.006,20.448 -8.26,-3.722 -13.805,-11.272 -21.075,-16.397 -1.317,0.529 -0.874,2.128 -1.116,3.312 -0.879,0.316 -1.205,-0.152 -1.841,-0.182 0.423,7.55 3.008,14.269 5.696,20.4 -4.985,-3.256 -8.373,-8.764 -10.502,-16.05 -2.257,-0.502 -1.99,1.48 -3.463,2.114 -1.2,0.303 -1.421,-0.771 -2.526,-0.6 -0.92,0.297 -1.103,1.045 -1.794,1.489 C 78.789,68.271 77.514,66.374 74.172,67.388 73.54,64.579 70.893,64.615 68.681,64.036 67.965,61.346 66.167,60.182 64.121,59.37 58.806,59.642 55.38,64.101 50.9,66.572 46.212,69.159 39.14,71.742 31.771,72.75 21.339,74.18 11.368,70.688 4.923,66.227 2.66,64.659 1.2,62.388 -1.351,60.514 -4.722,58.04 -9.272,56.3 -13.305,53.448 c -7.469,-5.287 -14.622,-10.561 -24.839,-12.82 -5.082,-1.125 -10.54,-2.488 -15.391,-1.878 -3.175,0.402 -7.05,0.662 -13.983,2.038 5.062,-3.892 10.724,-7.481 18.127,-9.614 13.217,-3.808 27.625,-3.135 40.905,-5.335 -1.109,-1.946 -4.831,-2.246 -5.876,-5.234 -0.444,-1.27 0.2,-3.356 -0.189,-5.285 -0.731,-3.634 -1.944,-12.296 -1.359,-13.128 -28.838,5.769 -56.564,9.641 -87.618,12.71 l -2.117,0.205 z"
         style="fill:#ffffff;fill-opacity:1;fill-rule:nonzero;stroke:none"
         id="path61"
         inkscape:connector-curvature="0" /></g><g
       id="g63"
       transform="translate(481.90603,155.30351)"
       style="fill:#ffffff"><path
         d="M 0,0 -3.335,36.064 -15.393,0 -25.623,0 -37.454,36.459 -40.679,0 l -12.01,0 5.777,56.916 0.183,1.798 14.689,0 10.618,-33.068 c 0.369,-1.198 0.777,-2.665 1.171,-4.151 0.371,1.358 0.749,2.703 1.093,3.849 l 10.504,33.37 15.337,0 L 12.308,0 0,0 z"
         style="fill:#ffffff;fill-opacity:1;fill-rule:nonzero;stroke:none"
         id="path65"
         inkscape:connector-curvature="0" /></g><g
       id="g67"
       transform="translate(502.50803,155.30251)"
       style="fill:#ffffff"><path
         d="m 0,0 5.78,56.918 0.181,1.798 14.693,0 10.62,-33.07 c 0.368,-1.197 0.774,-2.663 1.167,-4.147 0.371,1.357 0.748,2.702 1.092,3.847 l 10.504,33.37 15.338,0 L 65,0.002 52.691,0.002 49.354,36.061 37.299,0.002 27.068,0.002 15.238,36.464 12.012,0 0,0 z"
         style="fill:#ffffff;fill-opacity:1;fill-rule:nonzero;stroke:none"
         id="path69"
         inkscape:connector-curvature="0" /></g><g
       id="g71"
       transform="translate(579.16803,164.81951)"
       style="fill:#ffffff"><path
         d="m 0,0 c -1.606,3.256 -2.116,5.911 -2.086,12.396 l 0,34.803 0,2.001 12.388,0 0,-34.813 C 10.287,10.269 10.634,6.929 10.947,5.861 11.465,4.367 12.518,3.165 14.184,2.247 15.86,1.331 18.16,0.772 20.88,0.776 c 4.641,0 7.342,1.198 8.534,2.929 0.787,1.125 1.169,1.923 1.449,3.12 0.272,1.194 0.387,2.846 0.383,5.363 l 0,37.012 12.385,0 0,-36.804 C 43.625,7.828 43.409,4.618 42.572,1.892 41.744,-0.845 40.2,-2.947 38.06,-4.896 33.738,-8.895 28.131,-10.483 20.669,-10.461 l -0.259,0 C 8.961,-10.461 2.667,-5.59 0,0"
         style="fill:#ffffff;fill-opacity:1;fill-rule:nonzero;stroke:none"
         id="path73"
         inkscape:connector-curvature="0" /></g><g
       id="g75"
       transform="translate(669.26703,155.30351)"
       style="fill:#ffffff"><path
         d="m 0,0 -18.202,30.015 c -1.109,1.874 -2.311,4.047 -3.429,6.127 0.056,-1.779 0.102,-3.783 0.131,-6.015 L -20.939,0 l -12.634,0 0,56.715 0,1.999 12.775,0 18.402,-30.744 c 0.896,-1.502 1.762,-3.025 2.565,-4.472 -0.099,1.811 -0.175,3.732 -0.203,5.626 l -0.334,29.59 12.194,0 L 11.826,0 0,0 z"
         style="fill:#ffffff;fill-opacity:1;fill-rule:nonzero;stroke:none"
         id="path77"
         inkscape:connector-curvature="0" /></g><g
       id="g79"
       transform="translate(694.84603,155.30351)"
       style="fill:#ffffff"><path
         d="m 0,0 0,56.814 0,2.001 12.389,0 L 12.389,0 0,0 z"
         style="fill:#ffffff;fill-opacity:1;fill-rule:nonzero;stroke:none"
         id="path81"
         inkscape:connector-curvature="0" /></g><g
       id="g83"
       transform="translate(732.05503,155.30251)"
       style="fill:#ffffff"><path
         d="m 0,0 -0.002,47.688 -16.243,0 0,9.027 0,2.001 46.099,0 L 28.38,47.69 12.177,47.69 12.177,0 0,0 z"
         style="fill:#ffffff;fill-opacity:1;fill-rule:nonzero;stroke:none"
         id="path85"
         inkscape:connector-curvature="0" /></g><g
       id="g87"
       transform="translate(770.13003,155.30251)"
       style="fill:#ffffff"><path
         d="m 0,0 0,56.816 0,2.001 12.387,0 L 12.387,0 0,0 z"
         style="fill:#ffffff;fill-opacity:1;fill-rule:nonzero;stroke:none"
         id="path89"
         inkscape:connector-curvature="0" /></g><g
       id="g91"
       transform="translate(796.34303,155.30251)"
       style="fill:#ffffff"><path
         d="m 0,0 0,56.504 0,1.999 38.414,0 -1.803,-11.023 -24.224,0 0,-11.512 20.538,0 0,-11.024 -20.435,0 0,-13.607 26.517,0 L 39.007,0 0,0 z"
         style="fill:#ffffff;fill-opacity:1;fill-rule:nonzero;stroke:none"
         id="path93"
         inkscape:connector-curvature="0" /></g><g
       id="g95"
       transform="translate(843.39803,159.42351)"
       style="fill:#ffffff"><path
         d="m 0,0 -1.73,0.941 5.318,10.15 1.786,-0.974 c 5.535,-3.011 10.581,-4.361 16.333,-4.368 3.738,0.009 5.812,0.485 7.681,1.748 l 0.022,0.018 0.056,0.031 c 2.326,1.478 3.319,3.077 3.343,5.11 -0.035,1.682 -0.475,2.728 -1.774,3.902 -1.311,1.157 -3.682,2.275 -7.314,3.176 L 15.67,21.829 C 7.086,23.935 1.058,30.188 1.053,37.918 c -0.017,5.32 2.425,9.977 6.43,13.124 4.006,3.164 9.509,4.912 15.799,4.912 7.401,-0.019 15.114,-2.031 20.339,-5.714 l 1.533,-1.089 -5.809,-9.358 -1.693,1.031 c -4.571,2.776 -9.228,4.21 -13.951,4.21 -3.227,0.007 -5.763,-0.714 -7.338,-1.781 -1.571,-1.096 -2.269,-2.326 -2.299,-4.076 0.04,-1.681 0.887,-3.081 3.786,-4.332 l 0.034,-0.013 0.049,-0.023 c 1.45,-0.658 1.549,-0.806 4.22,-1.436 l 0.045,-0.01 7.436,-1.993 c 4.495,-1.14 8.988,-3.287 11.939,-6.083 2.844,-2.877 4.441,-7.073 4.459,-11.266 C 46.026,7.559 42.22,1.474 36.094,-1.878 31.945,-4.179 26.887,-5.273 21.188,-5.273 13.727,-5.271 6.292,-3.418 0,0"
         style="fill:#ffffff;fill-opacity:1;fill-rule:nonzero;stroke:none"
         id="path97"
         inkscape:connector-curvature="0" /></g><g
       id="g99"
       transform="translate(324.68503,162.89251)"
       style="fill:#ffffff"><path
         d="m 0,0 c -4.993,5.317 -7.855,12.785 -7.851,21.346 -0.003,8.647 3.055,16.332 8.185,21.855 5.123,5.525 12.339,8.872 20.437,8.867 6.029,-0.016 12.211,-1.62 16.587,-4.785 l -1.179,-1.617 1.179,1.617 1.646,-1.2 -6.646,-8.755 -1.553,0.988 C 27.608,40.337 24.621,41.24 20.876,41.253 14.946,41.228 10.101,38.331 7.581,33.162 6.191,30.283 5.476,26.644 5.476,21.033 5.533,13.661 6.663,10.663 9.878,7.079 c 2.99,-3.241 6.737,-4.779 11.417,-4.8 3.404,-0.005 6.864,0.962 9.572,2.556 l 0.052,0.031 0.066,0.032 c 0.207,0.106 0.559,0.28 1.01,0.554 l 1.529,0.929 6.515,-8.463 -1.598,-1.221 C 33.92,-6.722 27.287,-8.408 20.248,-8.425 l -0.033,0 C 12.075,-8.425 4.98,-5.315 0,0"
         style="fill:#ffffff;fill-opacity:1;fill-rule:nonzero;stroke:none"
         id="path101"
         inkscape:connector-curvature="0" /></g><g
       id="g103"
       transform="translate(393.19503,204.14751)"
       style="fill:#ffffff"><path
         d="m 0,0 c -4.466,0.031 -8.738,-2.057 -10.399,-4.677 -1.849,-2.706 -2.806,-6.899 -2.797,-13.551 -0.015,-7.439 1.261,-13.084 3.449,-16.418 l 0.023,-0.037 0.023,-0.038 c 1.573,-2.718 5.277,-4.561 10.854,-4.567 6.125,0.08 9.623,2.204 11.358,6.518 1.35,3.305 1.83,6.134 1.841,11.92 0,7.311 -0.832,11.559 -2.495,14.786 C 9.475,-1.683 5.814,-0.072 0,0 m 0.315,10.812 c 9.312,0.031 16.423,-3.651 21.232,-9.513 4.384,-5.186 6.248,-12.054 6.238,-21.099 0.027,-9.384 -1.549,-15.642 -6.009,-20.975 -4.93,-6.127 -11.329,-9.015 -20.502,-9.015 -0.109,0 -0.22,0 -0.33,10e-4 -8.58,-0.06 -14.711,2.34 -19.628,7.906 -5.372,6.007 -7.871,13.271 -7.843,22.602 -0.003,9.051 2.458,16.592 7.145,21.898 4.677,5.313 11.541,8.213 19.697,8.196 l 0,-0.001 z"
         style="fill:#ffffff;fill-opacity:1;fill-rule:nonzero;stroke:none"
         id="path105"
         inkscape:connector-curvature="0" /></g></g></svg>